<?xml version="1.0" encoding="utf-8"?>
<!-- Generator: Adobe Illustrator 24.2.0, SVG Export Plug-In . SVG Version: 6.00 Build 0)  -->
<svg version="1.1" id="Layer_1" xmlns="http://www.w3.org/2000/svg" xmlns:xlink="http://www.w3.org/1999/xlink" x="0px" y="0px"
	 viewBox="0 0 299.99 119.12" style="enable-background:new 0 0 299.99 119.12;" xml:space="preserve">
<style type="text/css">
	.st0{fill:url(#SVGID_1_);}
	.st1{fill:url(#SVGID_2_);}
</style>
<g>
	
		<linearGradient id="SVGID_1_" gradientUnits="userSpaceOnUse" x1="149.995" y1="119.46" x2="149.995" y2="0.34" gradientTransform="matrix(1 0 0 -1 0 119.46)">
		<stop  offset="0" style="stop-color:#003A60"/>
		<stop  offset="1" style="stop-color:#006D4A"/>
	</linearGradient>
	<path class="st0" d="M290.51,119.12H9.48c-5.23,0-9.48-4.25-9.48-9.48V9.48C0,4.25,4.25,0,9.48,0h281.03
		c5.23,0,9.48,4.25,9.48,9.48v100.15C300,114.86,295.74,119.12,290.51,119.12z M9.48,6.52c-1.63,0-2.96,1.33-2.96,2.96v100.15
		c0,1.63,1.33,2.96,2.96,2.96h281.03c1.63,0,2.96-1.33,2.96-2.96V9.48c0-1.63-1.33-2.96-2.96-2.96H9.48z"/>
	
		<linearGradient id="SVGID_2_" gradientUnits="userSpaceOnUse" x1="151.455" y1="87.8844" x2="151.455" y2="22.49" gradientTransform="matrix(1 0 0 -1 0 119.46)">
		<stop  offset="0" style="stop-color:#0067B1"/>
		<stop  offset="1" style="stop-color:#00AE4F"/>
	</linearGradient>
	<path class="st1" d="M49.86,36.91h10.36v35.14c0,6.02-4.64,10.89-10.36,10.89V63.21H36.73v19.73H26.37V47.8
		c0-6.02,4.64-10.89,10.36-10.89v17.8h13.13V36.91z M71.81,31.73c-1.73,0-3.14,0.54-4.23,1.61c-1.1,1.07-1.64,2.43-1.64,4.07
		c0,1.64,0.55,3,1.64,4.07s2.5,1.61,4.23,1.61s3.15-0.54,4.26-1.61s1.67-2.43,1.67-4.07c0-1.64-0.56-3-1.67-4.07
		C74.96,32.27,73.54,31.73,71.81,31.73z M66.88,82.94h9.98V49.41h-9.98V82.94z M114.24,51.37c-2.19,0.88-5.41,1.33-9.66,1.33
		c2.19,0.93,3.79,2.06,4.8,3.41c1.01,1.35,1.52,3.09,1.52,5.24c0,2.15-0.57,4.07-1.7,5.78s-2.77,3.04-4.89,4.01
		c-2.13,0.97-4.62,1.45-7.48,1.45c-1.35,0-2.63-0.13-3.85-0.38c-0.34,0.17-0.6,0.43-0.79,0.79s-0.28,0.73-0.28,1.11
		c0,0.63,0.24,1.13,0.73,1.48c0.48,0.36,1.46,0.54,2.94,0.54h5.05c2.57,0,4.82,0.42,6.76,1.26s3.43,2,4.48,3.47
		c1.05,1.47,1.58,3.14,1.58,4.99c0,3.49-1.51,6.22-4.51,8.18c-3.01,1.96-7.36,2.94-13.04,2.94c-4.08,0-7.3-0.43-9.66-1.29
		c-2.36-0.86-4.01-2.07-4.96-3.63c-0.95-1.56-1.42-3.52-1.42-5.87h8.97c0,1.01,0.2,1.81,0.6,2.4s1.13,1.03,2.18,1.33
		c1.05,0.29,2.57,0.44,4.55,0.44c2.74,0,4.63-0.33,5.68-0.98c1.05-0.65,1.58-1.59,1.58-2.81c0-1.01-0.4-1.81-1.2-2.4
		c-0.8-0.59-2-0.88-3.6-0.88h-4.86c-3.45,0-6.03-0.62-7.73-1.86c-1.7-1.24-2.56-2.83-2.56-4.77c0-1.22,0.36-2.41,1.07-3.57
		c0.72-1.16,1.68-2.12,2.9-2.87c-2.1-1.14-3.63-2.47-4.58-4.01s-1.42-3.4-1.42-5.59c0-3.75,1.35-6.72,4.04-8.94
		c2.69-2.21,6.25-3.31,10.67-3.31c3.37,0.08,6.22-0.25,8.56-1.01s4.75-1.87,7.23-3.35L114.24,51.37z M101.42,60.34
		c0-3.62-1.68-5.43-5.05-5.43c-1.56,0-2.79,0.5-3.69,1.48c-0.91,0.99-1.36,2.35-1.36,4.07c0,1.81,0.45,3.21,1.36,4.2
		c0.91,0.99,2.14,1.48,3.69,1.48c1.64,0,2.89-0.48,3.76-1.45C100.99,63.73,101.42,62.27,101.42,60.34z M122.1,31.73
		c-1.73,0-3.14,0.54-4.23,1.61s-1.64,2.43-1.64,4.07c0,1.64,0.55,3,1.64,4.07c1.09,1.07,2.5,1.61,4.23,1.61s3.15-0.54,4.26-1.61
		c1.11-1.07,1.67-2.43,1.67-4.07c0-1.64-0.56-3-1.67-4.07C125.25,32.27,123.83,31.73,122.1,31.73z M117.18,82.94h9.98V49.41h-9.98
		V82.94z M167.06,70.19c0,4.67-1.67,7.97-5.02,9.88c-3.35,1.92-8.03,2.87-14.05,2.87h-14.08V39.18h12.38
		c6.15,0,10.84,0.87,14.08,2.62s4.86,4.6,4.86,8.56c0,2.57-0.77,4.64-2.3,6.22c-1.54,1.58-3.44,2.64-5.71,3.19
		c2.9,0.55,5.27,1.62,7.1,3.22C166.14,64.59,167.06,66.99,167.06,70.19z M144.26,56.67h3.85c4.38,0,6.57-1.77,6.57-5.3
		c0-1.77-0.59-3.02-1.77-3.76c-1.18-0.74-3.05-1.11-5.62-1.11h-3.03L144.26,56.67L144.26,56.67z M156.39,69.62
		c0-4.04-2.53-6.06-7.58-6.06h-4.55v11.87h3.79c2.74,0,4.81-0.41,6.22-1.23C155.68,73.38,156.39,71.85,156.39,69.62z M200.96,77.32
		l-2.08,6.5c-2.06-0.17-3.75-0.62-5.05-1.36s-2.32-1.9-3.03-3.5c-2.19,3.37-5.56,5.05-10.1,5.05c-3.33,0-5.98-0.97-7.96-2.9
		c-1.98-1.94-2.97-4.46-2.97-7.58c0-3.66,1.35-6.46,4.04-8.4c2.69-1.94,6.59-2.9,11.68-2.9h3.41v-1.45c0-1.98-0.42-3.34-1.26-4.07
		c-0.84-0.74-2.32-1.11-4.42-1.11c-1.1,0-2.42,0.16-3.98,0.47c-1.56,0.32-3.16,0.75-4.8,1.29l-2.27-6.57
		c2.1-0.8,4.26-1.41,6.47-1.83s4.26-0.63,6.16-0.63c4.8,0,8.31,0.99,10.55,2.97c2.23,1.98,3.35,4.95,3.35,8.9v13.01
		c0,1.26,0.18,2.19,0.54,2.78C199.58,76.59,200.16,77.03,200.96,77.32z M188.9,67.72h-2.46c-2.27,0-3.97,0.4-5.08,1.2
		c-1.12,0.8-1.67,2.04-1.67,3.73c0,1.35,0.35,2.39,1.04,3.13s1.65,1.1,2.87,1.1c2.27,0,4.04-1.07,5.3-3.22V67.72z M230.04,56.42
		v-7.01h-25.38v7.51h13.89l-15.22,18.94v7.07h26.14l0.88-7.58h-15.47L230.04,56.42z M239.41,31.73c-1.73,0-3.14,0.54-4.23,1.61
		s-1.64,2.43-1.64,4.07c0,1.64,0.55,3,1.64,4.07c1.09,1.07,2.5,1.61,4.23,1.61s3.15-0.54,4.26-1.61c1.11-1.07,1.67-2.43,1.67-4.07
		c0-1.64-0.56-3-1.67-4.07C242.55,32.27,241.13,31.73,239.41,31.73z M234.48,82.94h9.98V49.41h-9.98V82.94z M273.97,66.24
		c-1.71-1.62-4.31-2.94-7.8-3.95c-2.02-0.59-3.52-1.09-4.48-1.52c-0.97-0.42-1.61-0.83-1.93-1.23s-0.47-0.92-0.47-1.55
		c0-0.8,0.35-1.42,1.04-1.86s1.69-0.66,3-0.66c2.78,0,5.53,0.86,8.27,2.59l3.66-5.62c-1.6-1.3-3.45-2.31-5.56-3.03
		s-4.36-1.07-6.76-1.07c-2.74,0-5.15,0.45-7.23,1.36c-2.08,0.91-3.68,2.13-4.8,3.66c-1.12,1.54-1.67,3.27-1.67,5.21
		c0,2.57,0.82,4.72,2.46,6.44c1.64,1.73,4.13,3.07,7.45,4.04c2.1,0.59,3.64,1.08,4.61,1.48s1.62,0.83,1.96,1.29
		c0.34,0.46,0.51,1.1,0.51,1.89c0,1.01-0.43,1.79-1.29,2.34c-0.86,0.55-2.05,0.82-3.57,0.82c-3.12,0-6.08-1.09-8.9-3.28l-4.86,5.43
		c1.68,1.56,3.73,2.78,6.16,3.66c2.42,0.88,5.04,1.33,7.86,1.33c2.78,0,5.3-0.44,7.58-1.33c2.27-0.88,4.06-2.16,5.37-3.82
		c1.3-1.66,1.96-3.63,1.96-5.9C276.52,70.1,275.67,67.86,273.97,66.24z M186.86,32.19c-4.21,2.25-9.16,10.43-9.16,10.43
		s9.56,0.44,13.76-1.8c2.46-1.31,3.43-4.31,2.16-6.69S189.33,30.87,186.86,32.19L186.86,32.19z"/>
</g>
</svg>
